<svg xmlns="http://www.w3.org/2000/svg" viewBox="0 0 520 340">
<rect width="520" height="340" rx="30" fill="#ffffff"/><rect x="1" y="1" width="518" height="338" rx="29" fill="none" stroke="#dce2ea"/>
<circle cx="78" cy="72" r="32" fill="#f3f5f8" stroke="#dce2ea"/><text x="78" y="83" text-anchor="middle" font-family="Arial" font-size="24" font-weight="800" fill="#111827">3</text>
<text x="130" y="66" font-family="Arial" font-size="25" font-weight="800" fill="#141821">BI Platform</text>
<text x="130" y="94" font-family="Arial" font-size="14" fill="#667085">Insights, Risks &amp; Actions</text>
<rect x="46" y="135" width="124" height="78" rx="18" fill="#f8fafc" stroke="#dce2ea"/><rect x="198" y="135" width="124" height="78" rx="18" fill="#f8fafc" stroke="#dce2ea"/><rect x="350" y="135" width="124" height="78" rx="18" fill="#f8fafc" stroke="#dce2ea"/>
<path d="M170 174 H198 M322 174 H350" stroke="#111827" stroke-width="6" stroke-linecap="round"/>
<circle cx="108" cy="174" r="22" fill="#111827"/><path d="M95 174 l9 9 18-22" fill="none" stroke="#fff" stroke-width="5" stroke-linecap="round" stroke-linejoin="round"/>
<rect x="230" y="155" width="60" height="10" rx="5" fill="#111827"/><rect x="230" y="176" width="42" height="10" rx="5" fill="#a7ada5"/><rect x="385" y="150" width="54" height="48" rx="12" fill="#111827"/><circle cx="412" cy="174" r="12" fill="#fff"/>
<path d="M78 272 C130 238, 178 266, 238 232 S350 286, 442 236" fill="none" stroke="#111827" stroke-width="8" stroke-linecap="round"/>
<rect x="46" y="292" width="96" height="13" rx="7" fill="#111827"/><rect x="154" y="292" width="72" height="13" rx="7" fill="#a7ada5"/><rect x="238" y="292" width="118" height="13" rx="7" fill="#d5d8d2"/>
</svg>