<svg xmlns="http://www.w3.org/2000/svg" viewBox="0 0 900 500">
  <rect width="900" height="500" fill="#ffffff"/>
  <rect x="20" y="20" width="860" height="460" rx="20" fill="#f6f8fa" stroke="#d9dee5"/>

  <text x="40" y="60" font-family="Arial" font-size="28" font-weight="700" fill="#111827">
    Medical Analytics Dashboard
  </text>

  <text x="40" y="90" font-family="Arial" font-size="14" fill="#6b7280">
    Billing • Claims • Encounters • Revenue Intelligence
  </text>

  <rect x="40" y="120" width="180" height="90" rx="14" fill="#ffffff" stroke="#d9dee5"/>
  <rect x="240" y="120" width="180" height="90" rx="14" fill="#ffffff" stroke="#d9dee5"/>
  <rect x="440" y="120" width="180" height="90" rx="14" fill="#ffffff" stroke="#d9dee5"/>
  <rect x="640" y="120" width="180" height="90" rx="14" fill="#ffffff" stroke="#d9dee5"/>

  <text x="60" y="155" font-family="Arial" font-size="14" fill="#6b7280">Total Billing</text>
  <text x="60" y="190" font-family="Arial" font-size="26" font-weight="700" fill="#111827">$42.8M</text>

  <text x="260" y="155" font-family="Arial" font-size="14" fill="#6b7280">Claims</text>
  <text x="260" y="190" font-family="Arial" font-size="26" font-weight="700" fill="#111827">98.2%</text>

  <text x="460" y="155" font-family="Arial" font-size="14" fill="#6b7280">Patients</text>
  <text x="460" y="190" font-family="Arial" font-size="26" font-weight="700" fill="#111827">128K</text>

  <text x="660" y="155" font-family="Arial" font-size="14" fill="#6b7280">Departments</text>
  <text x="660" y="190" font-family="Arial" font-size="26" font-weight="700" fill="#111827">24</text>

  <rect x="40" y="250" width="820" height="180" rx="16" fill="#ffffff" stroke="#d9dee5"/>

  <polyline points="70,390 170,330 260,340 360,280 460,300 560,240 660,260 760,210"
      fill="none"
      stroke="#111827"
      stroke-width="6"/>

  <text x="40" y="460" font-family="Arial" font-size="14" fill="#6b7280">
    Clinical Billing Trends • Revenue Growth • Patient Intelligence
  </text>
</svg>